# xmcd
#
# Track frame offsets: 
#        150
#        17110
#        32869
#        48725
#        63772
#        78537
#        92393
#        105770
#        120424
#        134266
#        152232
#        166317
#        184421
#        200724
#        212555
#        225116
#        236535
#        257552
#        272064
#        286517
#
# Disc length: 3959 seconds
#
# Revision: 2
# Processed by: cddbd v1.5.2PL0 Copyright (c) Steve Scherf et al.
# Submitted via: ExactAudioCopy v0.99pb5
#
DISCID=030f7514
DTITLE=Various Artist - 100 Hits - 70s Heart Throbs - 100 Ultimate Teen Idols
DTITLE=Various Artist - CD 5
DYEAR=2016
DGENRE=Pop
TTITLE0=Jacksons - Shake your body (down to the ground)
TTITLE1=Gary's Gang - Keep on dancin'
TTITLE2=Billy Ocean - Red light
TTITLE3=Hues Corporation - Rock the boat
TTITLE4=Drifters - You're more than a number in my little red book
TTITLE5=Mac Davis - Baby, don't get hooked on me
TTITLE6=Chairmen Of The Board - You've got me dangling on a string
TTITLE7=Johnny Nash - Tears on my pillow
TTITLE8=Johnny Johnson and The Bandwagon - (Blame it) on the Pony Expres
TTITLE8=s
TTITLE9=Average White Band - Pick up the pieces
TTITLE10=Sutherland Brothers and Quiver - Secrets
TTITLE11=Family - Love is a sleeper
TTITLE12=Dooleys - Wanted
TTITLE13=Buster - Sunday
TTITLE14=Georgie Fame and Alan Price - Rosetta
TTITLE15=Terry Jacks - If you go away
TTITLE16=Labi Siffre - My song
TTITLE17=Middle Of The Road - Tweedle dee tweedle dum
TTITLE18=Tony Christie - (Is this the way to) Amarillo
TTITLE19=Floyd Cramer - Julie, do ya love me
EXTD=
EXTT0=
EXTT1=
EXTT2=
EXTT3=
EXTT4=
EXTT5=
EXTT6=
EXTT7=
EXTT8=
EXTT9=
EXTT10=
EXTT11=
EXTT12=
EXTT13=
EXTT14=
EXTT15=
EXTT16=
EXTT17=
EXTT18=
EXTT19=
PLAYORDER=
